<svg xmlns="http://www.w3.org/2000/svg" viewBox="0 0 512 512" width="100%" height="100%">
  <rect width="512" height="512" rx="115" ry="115" fill="#000000"/>
  <path fill="#ffffff" transform="translate(121, 88) scale(1.6)" d="M150.37 130.25c-2.45 5.66-5.35 10.87-8.71 15.66-4.58 6.53-8.33 11.05-11.22 13.56-4.48 4.12-9.28 6.23-14.42 6.35-3.69 0-8.14-1.05-13.32-3.18-5.19-2.12-9.97-3.17-14.34-3.17-4.58 0-9.49 1.05-14.75 3.17-5.26 2.13-9.5 3.24-12.74 3.35-4.33.13-9.13-1.9-14.4-6.1-3.48-2.82-7.46-7.55-11.95-14.19-6.3-9.17-11.27-19.34-14.92-30.5-3.65-11.16-5.48-21.73-5.48-31.7 0-13.88 3.51-25.26 10.53-34.13 7.02-8.87 15.82-13.37 26.4-13.5 4.83 0 10.01 1.25 15.54 3.75 5.53 2.5 9.4 3.75 11.61 3.75 1.95 0 5.86-1.28 11.73-3.84 5.87-2.56 10.87-3.79 15-3.69 11.22.63 20.31 4.79 27.27 12.48-9.84 5.97-14.63 14.15-14.37 24.53.26 8.35 3.5 15.34 9.72 20.97 6.22 5.63 13.68 8.94 22.38 9.94-2.3 6.78-5.32 13.78-9.06 21.01zm-32.96-104.91c0 6.64-2.37 12.89-7.1 18.75-5.54 6.79-12.56 10.74-21.06 11.85-.26-.88-.39-1.89-.39-3.03 0-6.49 2.53-12.78 7.59-18.87 2.65-3.23 5.92-5.91 9.8-8.04 3.88-2.13 7.64-3.3 11.28-3.5.13.9.19 1.85.19 2.84z"/>
</svg>
